<?xml version="1.0" encoding="UTF-8" standalone="no" ?>
<!DOCTYPE svg PUBLIC "-//W3C//DTD SVG 1.1//EN" "http://www.w3.org/Graphics/SVG/1.1/DTD/svg11.dtd">
<svg xmlns="http://www.w3.org/2000/svg" xmlns:xlink="http://www.w3.org/1999/xlink" version="1.1" width="50" height="50" viewBox="0 0 50 50" xml:space="preserve">
<desc>Created with Fabric.js 4.6.0</desc>
<defs>
</defs>
<g transform="matrix(1 0 0 1 25.24 25.13)" id="E1kyiECXWaqTzgtFffONZ"  >
<path style="stroke: none; stroke-width: 1; stroke-dasharray: none; stroke-linecap: butt; stroke-dashoffset: 0; stroke-linejoin: miter; stroke-miterlimit: 4; fill: rgb(255,255,255); fill-rule: nonzero; opacity: 1;" vector-effect="non-scaling-stroke"  transform=" translate(-25, -25)" d="M 36.3636 24.99995 C 36.3636 18.723959999999998 31.275999999999996 13.636369999999998 25 13.636369999999998 C 18.724 13.636369999999998 13.6364 18.723959999999998 13.6364 24.99995 C 13.6364 31.27594 18.724 36.36353 25 36.36353 C 31.2729 36.35603 36.3561 31.272839999999995 36.3636 24.99995 z M 25 31.81803 C 21.2344 31.81803 18.1819 28.76544 18.1819 24.999940000000002 C 18.1819 21.234350000000003 21.234499999999997 18.181850000000004 25 18.181850000000004 C 28.7656 18.181850000000004 31.8181 21.234440000000003 31.8181 24.999940000000002 C 31.8181 28.765530000000002 28.765500000000003 31.81803 25 31.81803 z M 22.7273 6.81819 L 22.7273 2.2727000000000004 C 22.7273 1.0175000000000003 23.744799999999998 4.440892098500626e-16 25.0001 4.440892098500626e-16 C 26.2552 4.440892098500626e-16 27.2729 1.0175000000000005 27.2729 2.2727000000000004 L 27.2729 6.81819 C 27.2729 8.07339 26.2554 9.09089 25.0001 9.09089 C 23.745 9.09089 22.7273 8.07339 22.7273 6.8181899999999995 z M 25 40.90901 C 26.2551 40.90901 27.2728 41.92651 27.2728 43.18171 L 27.2728 47.7272 C 27.2728 48.982400000000005 26.2553 49.999900000000004 25 49.999900000000004 C 23.7449 49.999900000000004 22.7272 48.982400000000005 22.7272 47.7272 L 22.7272 43.18171 C 22.7272 41.92651 23.7447 40.90901 25 40.90901 z M 42.6773 10.53638 L 39.4637 13.74997 C 38.572 14.61117 37.1544 14.59897 36.2777 13.72227 C 35.4011 12.84567 35.3887 11.42807 36.25 10.53628 L 39.4636 7.32269 C 40.3553 6.4614899999999995 41.7728 6.4736899999999995 42.6496 7.35039 C 43.5262 8.22699 43.5386 9.64459 42.6773 10.53638 z M 7.3228 39.46352 L 10.5364 36.249930000000006 C 11.4282 35.38873000000001 12.845600000000001 35.40093000000001 13.7224 36.27763000000001 C 14.599 37.15423000000001 14.6114 38.571830000000006 13.7502 39.463620000000006 L 10.5366 42.67721 C 9.6449 43.53841 8.2273 43.52621 7.3506 42.64951 C 6.474 41.772909999999996 6.4616 40.35531 7.323 39.46352 z M 50 24.99995 C 50 26.255149999999997 48.9825 27.27265 47.727199999999996 27.27265 L 43.1817 27.27265 C 41.9266 27.27265 40.9089 26.25515 40.9089 24.99995 C 40.9089 23.74475 41.9264 22.727249999999998 43.181700000000006 22.727249999999998 L 47.7272 22.727249999999998 C 48.9823 22.727249999999998 50 23.744749999999996 50 24.99995 z M 2.2728 27.27264 C 1.0175 27.27264 0 26.255139999999997 0 24.99994 C 0 23.74474 1.0175 22.72724 2.2728 22.72724 L 6.8183 22.72724 C 8.0734 22.72724 9.091 23.74474 9.091 24.99994 C 9.091 26.255139999999997 8.0735 27.27264 6.818299999999999 27.27264 z M 36.25 39.46352 C 35.3887 38.57182 35.401 37.154320000000006 36.2777 36.277530000000006 C 37.154300000000006 35.40093 38.5718 35.38853 39.4637 36.24983 L 42.6773 39.46342 C 43.268 40.03402 43.505 40.87902 43.2971 41.67362 C 43.0891 42.46822 42.4686 43.08872 41.674 43.29672 C 40.8794 43.50472 40.0344 43.26772 39.4637 42.67702 z M 7.3228 10.53638 C 6.4616 9.64468 6.4738 8.227179999999999 7.3504 7.350389999999999 C 8.227 6.473789999999999 9.6447 6.461389999999999 10.5364 7.322689999999999 L 13.75 10.536279999999998 C 14.3408 11.106879999999999 14.5778 11.951879999999997 14.3698 12.746479999999998 C 14.1618 13.541079999999997 13.5413 14.161579999999999 12.7467 14.36958 C 11.952100000000002 14.57758 11.1071 14.34058 10.5364 13.74988 z" stroke-linecap="round" />
</g>
</svg>