<?xml version="1.0" encoding="UTF-8" standalone="no" ?>
<!DOCTYPE svg PUBLIC "-//W3C//DTD SVG 1.1//EN" "http://www.w3.org/Graphics/SVG/1.1/DTD/svg11.dtd">
<svg xmlns="http://www.w3.org/2000/svg" xmlns:xlink="http://www.w3.org/1999/xlink" version="1.1" width="50" height="50" viewBox="0 0 50 50" xml:space="preserve">
<desc>Created with Fabric.js 4.6.0</desc>
<defs>
</defs>
<g transform="matrix(1 0 0 1 25 25)" id="EeYa0c1Qn3jHfGWn601Ec"  >
<path style="stroke: none; stroke-width: 1; stroke-dasharray: none; stroke-linecap: butt; stroke-dashoffset: 0; stroke-linejoin: miter; stroke-miterlimit: 4; fill: rgb(255,255,255); fill-rule: nonzero; opacity: 1;" vector-effect="non-scaling-stroke"  transform=" translate(-15.65, -22.5)" d="M 27.39136 17.60783 L 27.39136 11.73913 C 27.39136 5.25519 22.135009999999998 0.000009999999999621423 15.652009999999999 0.000009999999999621423 C 9.168219999999998 0.000009999999999621423 3.912849999999999 5.2551 3.912849999999999 11.73913 L 3.912849999999999 17.60783 C 1.752149999999999 17.60783 -1.3322676295501878e-15 19.35993 -1.3322676295501878e-15 21.52067 L -1.3322676295501878e-15 41.08692 C -1.3322676295501878e-15 43.24817 1.7520999999999987 45.000009999999996 3.912849999999999 45.000009999999996 L 27.39126 45.000009999999996 C 29.55216 45.000009999999996 31.30391 43.248059999999995 31.30391 41.08692 L 31.30391 21.52067 C 31.304109999999998 19.35997 29.552159999999997 17.60783 27.39126 17.60783 z M 7.82605 11.7391 C 7.82605 7.41631 11.330200000000001 3.9129700000000005 15.652190000000001 3.9129700000000005 C 19.97434 3.9129700000000005 23.4785 7.4160200000000005 23.4785 11.7391 L 23.4785 17.6078 L 7.82605 17.6078 z M 27.39136 41.0869 L 3.9129499999999986 41.0869 L 3.9129499999999986 21.52184 L 27.39136 21.52184 z M 13.6955 32.71826 L 13.6955 35.2173 C 13.6955 36.29695 14.572099999999999 37.1738 15.652 37.1738 C 16.73165 37.1738 17.6085 36.297 17.6085 35.2173 L 17.6085 32.71826 C 18.7721 32.04021 19.564999999999998 30.792360000000002 19.564999999999998 29.34796 C 19.564999999999998 27.18606 17.8128 25.43387 15.651899999999998 25.43387 C 13.491199999999997 25.43387 11.739049999999997 27.186069999999997 11.739049999999997 29.34796 C 11.739049999999997 30.79211 12.531299999999996 32.0402 13.695399999999998 32.71826 z" stroke-linecap="round" />
</g>
</svg>