<?xml version="1.0" encoding="UTF-8" standalone="no" ?>
<!DOCTYPE svg PUBLIC "-//W3C//DTD SVG 1.1//EN" "http://www.w3.org/Graphics/SVG/1.1/DTD/svg11.dtd">
<svg xmlns="http://www.w3.org/2000/svg" xmlns:xlink="http://www.w3.org/1999/xlink" version="1.1" width="50" height="50" viewBox="0 0 50 50" xml:space="preserve">
<desc>Created with Fabric.js 4.6.0</desc>
<defs>
</defs>
<g transform="matrix(1 0 0 1 25 25)" id="poHWbML0vNkWhTnYRpMXB"  >
<path style="stroke: none; stroke-width: 1; stroke-dasharray: none; stroke-linecap: butt; stroke-dashoffset: 0; stroke-linejoin: miter; stroke-miterlimit: 4; fill: rgb(255,255,255); fill-rule: nonzero; opacity: 1;" vector-effect="non-scaling-stroke"  transform=" translate(-15.19, -22.5)" d="M 26.5849 18.41395 L 7.996169999999999 18.41395 L 6.13688 15.19319 C 4.03965 11.56068 5.28334 6.91521 8.91822 4.81776 C 12.55096 2.7196399999999996 17.19575 3.9647799999999997 19.29298 7.597519999999999 L 23.09087 14.175619999999999 C 23.616699999999998 15.084399999999999 24.77657 15.394449999999999 25.685229999999997 14.870529999999999 C 26.592989999999997 14.345379999999999 26.904729999999997 13.185279999999999 26.379809999999996 12.276619999999998 L 22.582029999999996 5.698859999999998 C 19.435849999999995 0.2491299999999983 12.468049999999996 -1.617580000000002 7.018319999999996 1.5279199999999982 C 1.5682499999999955 4.674209999999999 -0.2981200000000044 11.642679999999999 2.848169999999996 17.09229 L 3.621049999999996 18.431269999999998 C 1.6071899999999957 18.526329999999998 0.000009999999996068709 20.174459999999996 0.000009999999996068709 22.211949999999998 L 0.000009999999996068709 41.20206 C 0.000009999999996068709 43.299290000000006 1.700449999999996 44.999950000000005 3.797679999999996 44.999950000000005 L 26.584909999999997 44.999950000000005 C 28.682249999999996 44.999950000000005 30.382349999999995 43.299170000000004 30.382349999999995 41.20206 L 30.382349999999995 22.211830000000003 C 30.382459999999995 20.114380000000004 28.682249999999996 18.413940000000004 26.584909999999994 18.413940000000004 z M 26.5849 41.20195 L 3.7977799999999995 41.20195 L 3.7977799999999995 22.212959999999995 L 26.58501 22.212959999999995 L 26.58501 41.20195 z M 13.29234 33.07877 L 13.29234 35.50506 C 13.29234 36.5539 14.14318 37.40406 15.19134 37.40406 C 16.23917 37.40406 17.09034 36.5539 17.09034 35.50506 L 17.09034 33.07877 C 18.219620000000003 32.421099999999996 18.989340000000002 31.20936 18.989340000000002 29.80851 C 18.989340000000002 27.70994 17.288560000000004 26.00961 15.191450000000001 26.00961 C 13.094220000000002 26.00961 11.393780000000001 27.70993 11.393780000000001 29.80851 C 11.393780000000001 31.209249999999997 12.162720000000002 32.42053 13.292440000000001 33.07877 z" stroke-linecap="round" />
</g>
</svg>